<?xml version="1.0" encoding="iso-8859-1"?>
<!-- Generator: Adobe Illustrator 19.0.0, SVG Export Plug-In . SVG Version: 6.00 Build 0)  -->
<svg version="1.1" id="Capa_1" xmlns="http://www.w3.org/2000/svg" xmlns:xlink="http://www.w3.org/1999/xlink" x="0px" y="0px"
	 viewBox="0 0 480 480" style="enable-background:new 0 0 480 480;" xml:space="preserve">
<g>
	<g>
		<rect width="16" height="16"/>
	</g>
</g>
<g>
	<g>
		<rect x="32" width="16" height="16"/>
	</g>
</g>
<g>
	<g>
		<rect x="48" y="64" width="16" height="16"/>
	</g>
</g>
<g>
	<g>
		<rect x="80" y="64" width="16" height="16"/>
	</g>
</g>
<g>
	<g>
		<rect x="64" y="32" width="24" height="16"/>
	</g>
</g>
<g>
	<g>
		<rect x="64" width="40" height="16"/>
	</g>
</g>
<g>
	<g>
		<rect y="32" width="48" height="16"/>
	</g>
</g>
<g>
	<g>
		<rect y="64" width="32" height="16"/>
	</g>
</g>
<g>
	<g>
		<rect x="56" y="208" width="16" height="16"/>
	</g>
</g>
<g>
	<g>
		<rect x="40" y="144" width="16" height="16"/>
	</g>
</g>
<g>
	<g>
		<rect x="8" y="144" width="16" height="16"/>
	</g>
</g>
<g>
	<g>
		<rect x="16" y="176" width="24" height="16"/>
	</g>
</g>
<g>
	<g>
		<rect y="208" width="40" height="16"/>
	</g>
</g>
<g>
	<g>
		<rect x="56" y="176" width="24" height="16"/>
	</g>
</g>
<g>
	<g>
		<rect x="72" y="144" width="24" height="16"/>
	</g>
</g>
<g>
	<g>
		<rect x="376" width="16" height="16"/>
	</g>
</g>
<g>
	<g>
		<rect x="408" width="16" height="16"/>
	</g>
</g>
<g>
	<g>
		<rect x="432" y="64" width="16" height="16"/>
	</g>
</g>
<g>
	<g>
		<rect x="464" y="64" width="16" height="16"/>
	</g>
</g>
<g>
	<g>
		<rect x="440" y="32" width="24" height="16"/>
	</g>
</g>
<g>
	<g>
		<rect x="440" width="40" height="16"/>
	</g>
</g>
<g>
	<g>
		<rect x="376" y="32" width="48" height="16"/>
	</g>
</g>
<g>
	<g>
		<rect x="392" y="64" width="24" height="16"/>
	</g>
</g>
<g>
	<g>
		<rect x="464" y="208" width="16" height="16"/>
	</g>
</g>
<g>
	<g>
		<rect x="424" y="144" width="16" height="16"/>
	</g>
</g>
<g>
	<g>
		<rect x="392" y="144" width="16" height="16"/>
	</g>
</g>
<g>
	<g>
		<rect x="400" y="176" width="24" height="16"/>
	</g>
</g>
<g>
	<g>
		<rect x="408" y="208" width="40" height="16"/>
	</g>
</g>
<g>
	<g>
		<rect x="440" y="176" width="24" height="16"/>
	</g>
</g>
<g>
	<g>
		<rect x="456" y="144" width="24" height="16"/>
	</g>
</g>
<g>
	<g>
		<rect y="296" width="16" height="16"/>
	</g>
</g>
<g>
	<g>
		<rect x="32" y="296" width="16" height="16"/>
	</g>
</g>
<g>
	<g>
		<rect x="48" y="360" width="16" height="16"/>
	</g>
</g>
<g>
	<g>
		<rect x="104" y="328" width="16" height="16"/>
	</g>
</g>
<g>
	<g>
		<rect x="64" y="328" width="24" height="16"/>
	</g>
</g>
<g>
	<g>
		<rect x="64" y="296" width="40" height="16"/>
	</g>
</g>
<g>
	<g>
		<rect y="328" width="48" height="16"/>
	</g>
</g>
<g>
	<g>
		<rect y="360" width="32" height="16"/>
	</g>
</g>
<g>
	<g>
		<path d="M472,312h-80c-2.216,0-4.216,0.904-5.664,2.352l-47.976,47.976c-1.392,1.384-2.232,3.296-2.304,5.4L304,354.624v-39.312
			l45.656-45.656C351.16,268.16,352,266.128,352,264v-24.408c17.952-2.016,32-17.112,32-35.592c0-15.312-9.656-28.336-23.16-33.528
			l4.816-4.816C367.16,164.16,368,162.128,368,160v-56c0-39.704-32.296-72-72-72h-0.64C284,12.408,262.808,0,240,0h-56
			c-4.424,0-8,3.576-8,8c0,8.336,1.6,16.48,4.704,24.08C142.528,33.808,112,65.408,112,104v56c0,2.128,0.84,4.16,2.344,5.656
			l4.816,4.816C105.656,175.664,96,188.688,96,204c0,18.48,14.048,33.576,32,35.592V264c0,2.128,0.84,4.16,2.344,5.656L176,315.312
			v39.312L4.968,424.592C1.96,425.832,0,428.752,0,432v40c0,4.424,3.576,8,8,8h336h128c4.424,0,8-3.576,8-8V320
			C480,315.576,476.424,312,472,312z M368,204c0,9.656-6.88,17.744-16,19.6v-39.2C361.12,186.256,368,194.344,368,204z M128,223.6
			c-9.12-1.856-16-9.944-16-19.6s6.88-17.744,16-19.6V223.6z M128,156.688V104c0-30.872,25.128-56,56-56h10.08
			c2.984,0,5.712-1.656,7.096-4.296c1.376-2.648,1.168-5.832-0.528-8.28c-4.112-5.88-6.808-12.48-7.976-19.424H240
			c18.384,0,35.392,10.768,43.312,27.44c1.328,2.784,4.144,4.56,7.224,4.56H296c30.872,0,56,25.128,56,56v52.688l-8,8l-8-8V104
			c0-2.248-0.944-4.392-2.6-5.904c-1.664-1.512-3.888-2.28-6.128-2.064L240,103.968l-87.272-7.936
			c-2.224-0.208-4.456,0.544-6.128,2.064c-1.656,1.512-2.6,3.656-2.6,5.904v52.688l-8,8L128,156.688z M144,260.688V232v-52.688
			l13.656-13.656C159.16,164.16,160,162.128,160,160v-47.24l79.272,7.208c0.488,0.048,0.968,0.048,1.456,0L320,112.76V160
			c0,2.128,0.84,4.16,2.344,5.656L336,179.312V232v28.688L268.688,328h-57.376L144,260.688z M288,331.312v24.568l-48,34.288
			l-48-34.288v-24.568l10.344,10.344C203.84,343.16,205.872,344,208,344h64c2.128,0,4.16-0.84,5.656-2.344L288,331.312z M336,464H16
			v-26.632l166.944-68.288l52.408,37.432c1.392,0.992,3.016,1.488,4.648,1.488s3.256-0.496,4.648-1.496l52.408-37.432L336,385.008
			V464z M384,339.312V360h-20.688L384,339.312z M464,464H352v-84.368V376h40c4.424,0,8-3.576,8-8v-40h64V464z"/>
	</g>
</g>
<g>
	<g>
		<rect x="368" y="392" width="16" height="16"/>
	</g>
</g>
<g>
	<g>
		<rect x="400" y="392" width="16" height="16"/>
	</g>
</g>
<g>
	<g>
		<rect x="432" y="392" width="16" height="16"/>
	</g>
</g>
<g>
	<g>
		<rect x="368" y="424" width="32" height="16"/>
	</g>
</g>
<g>
	<g>
		<rect x="416" y="424" width="32" height="16"/>
	</g>
</g>
<g>
	<g>
		<rect x="416" y="360" width="32" height="16"/>
	</g>
</g>
<g>
	<g>
		<rect x="232" y="424" width="16" height="16"/>
	</g>
</g>
<g>
	<g>
		<path d="M205.656,181.656l-11.312-11.312l-24,24c-3.128,3.128-3.128,8.184,0,11.312l24,24l11.312-11.312L187.312,200
			L205.656,181.656z"/>
	</g>
</g>
<g>
	<g>
		<path d="M309.656,194.344l-24-24l-11.312,11.312L292.688,200l-18.344,18.344l11.312,11.312l24-24
			C312.784,202.528,312.784,197.472,309.656,194.344z"/>
	</g>
</g>
<g>
	<g>
		<rect x="204.219" y="192.005" transform="matrix(0.4472 -0.8944 0.8944 0.4472 -46.2245 325.2167)" width="71.55" height="16"/>
	</g>
</g>
<g>
	<g>
		<rect x="232" y="256" width="16" height="16"/>
	</g>
</g>
<g>
	<g>
		<rect x="264" y="256" width="16" height="16"/>
	</g>
</g>
<g>
	<g>
		<rect x="200" y="256" width="16" height="16"/>
	</g>
</g>
<g>
</g>
<g>
</g>
<g>
</g>
<g>
</g>
<g>
</g>
<g>
</g>
<g>
</g>
<g>
</g>
<g>
</g>
<g>
</g>
<g>
</g>
<g>
</g>
<g>
</g>
<g>
</g>
<g>
</g>
</svg>
